<svg width="100" height="21" viewBox="0 0 100 21" fill="none" xmlns="http://www.w3.org/2000/svg">
<path d="M7.78089 13.3985H3.14604V10.4752H7.78089C8.49714 10.4752 9.08014 10.3586 9.52988 10.1254C9.97962 9.88387 10.3086 9.55073 10.5168 9.12597C10.725 8.70121 10.8291 8.22232 10.8291 7.68929C10.8291 7.14794 10.725 6.64406 10.5168 6.17766C10.3086 5.71126 9.97962 5.33648 9.52988 5.05331C9.08014 4.77014 8.49714 4.62855 7.78089 4.62855H4.4453V19.8823H0.697448V1.69273H7.78089C9.20507 1.69273 10.4252 1.95092 11.4413 2.46729C12.4657 2.97533 13.2486 3.67909 13.7899 4.57858C14.3313 5.47806 14.602 6.50664 14.602 7.66431C14.602 8.83864 14.3313 9.85472 13.7899 10.7126C13.2486 11.5704 12.4657 12.2325 11.4413 12.6989C10.4252 13.1653 9.20507 13.3985 7.78089 13.3985ZM16.2135 13.2611V12.9987C16.2135 12.0077 16.3551 11.0957 16.6383 10.2628C16.9215 9.42163 17.3337 8.69289 17.8751 8.07657C18.4165 7.46026 19.0827 6.98137 19.8739 6.6399C20.6652 6.2901 21.573 6.1152 22.5974 6.1152C23.6218 6.1152 24.5338 6.2901 25.3333 6.6399C26.1329 6.98137 26.8033 7.46026 27.3447 8.07657C27.8943 8.69289 28.3108 9.42163 28.5939 10.2628C28.8771 11.0957 29.0187 12.0077 29.0187 12.9987V13.2611C29.0187 14.2439 28.8771 15.1558 28.5939 15.997C28.3108 16.8299 27.8943 17.5586 27.3447 18.1833C26.8033 18.7996 26.137 19.2785 25.3458 19.62C24.5546 19.9614 23.6468 20.1322 22.6224 20.1322C21.598 20.1322 20.686 19.9614 19.8864 19.62C19.0952 19.2785 18.4248 18.7996 17.8751 18.1833C17.3337 17.5586 16.9215 16.8299 16.6383 15.997C16.3551 15.1558 16.2135 14.2439 16.2135 13.2611ZM19.8115 12.9987V13.2611C19.8115 13.8274 19.8615 14.3563 19.9614 14.8477C20.0613 15.3391 20.2196 15.7722 20.4361 16.1469C20.661 16.5134 20.9525 16.8007 21.3106 17.0089C21.6688 17.2172 22.106 17.3213 22.6224 17.3213C23.1221 17.3213 23.551 17.2172 23.9091 17.0089C24.2673 16.8007 24.5546 16.5134 24.7711 16.1469C24.9877 15.7722 25.1459 15.3391 25.2459 14.8477C25.3541 14.3563 25.4083 13.8274 25.4083 13.2611V12.9987C25.4083 12.4491 25.3541 11.9327 25.2459 11.4496C25.1459 10.9583 24.9835 10.5252 24.7586 10.1504C24.5421 9.76727 24.2548 9.46744 23.8966 9.2509C23.5385 9.03436 23.1054 8.92609 22.5974 8.92609C22.0893 8.92609 21.6563 9.03436 21.2981 9.2509C20.9483 9.46744 20.661 9.76727 20.4361 10.1504C20.2196 10.5252 20.0613 10.9583 19.9614 11.4496C19.8615 11.9327 19.8115 12.4491 19.8115 12.9987ZM34.8279 9.31336V19.8823H31.2299V6.36505H34.6155L34.8279 9.31336ZM38.9005 6.2776L38.8381 9.61319C38.6632 9.58821 38.4508 9.56738 38.2009 9.55073C37.9594 9.52574 37.7387 9.51325 37.5388 9.51325C37.0308 9.51325 36.5894 9.57988 36.2146 9.71313C35.8481 9.83806 35.54 10.0255 35.2901 10.2753C35.0486 10.5252 34.8654 10.8292 34.7404 11.1873C34.6238 11.5454 34.5572 11.9535 34.5405 12.4116L33.816 12.1867C33.816 11.3122 33.9034 10.5085 34.0783 9.7756C34.2532 9.03436 34.5072 8.38889 34.8404 7.83921C35.1818 7.28952 35.5983 6.86477 36.0896 6.56494C36.581 6.26511 37.1432 6.1152 37.7762 6.1152C37.9761 6.1152 38.1801 6.13185 38.3883 6.16517C38.5965 6.19015 38.7673 6.22763 38.9005 6.2776ZM47.8454 6.36505V8.91359H39.9749V6.36505H47.8454ZM41.9238 3.02947H45.5217V15.8096C45.5217 16.2011 45.5717 16.5009 45.6717 16.7091C45.7799 16.9173 45.9382 17.0631 46.1464 17.1464C46.3546 17.2213 46.6169 17.2588 46.9334 17.2588C47.1583 17.2588 47.3582 17.2505 47.5331 17.2338C47.7163 17.2088 47.8704 17.1838 47.9953 17.1589L48.0078 19.8073C47.6997 19.9073 47.3665 19.9864 47.0084 20.0447C46.6503 20.103 46.2547 20.1322 45.8216 20.1322C45.0304 20.1322 44.3391 20.0031 43.7478 19.7449C43.1648 19.4784 42.715 19.0536 42.3985 18.4706C42.082 17.8876 41.9238 17.1214 41.9238 16.1719V3.02947ZM54.4791 19.8823H50.8562V5.16574C50.8562 4.14133 51.0561 3.27932 51.4558 2.57973C51.8639 1.8718 52.4344 1.33877 53.1674 0.980643C53.9086 0.614186 54.7873 0.430958 55.8033 0.430958C56.1365 0.430958 56.4571 0.455944 56.7653 0.505915C57.0734 0.547558 57.3733 0.601693 57.6648 0.668322L57.6273 3.37927C57.4691 3.33762 57.3025 3.30847 57.1276 3.29182C56.9527 3.27516 56.7486 3.26683 56.5154 3.26683C56.0823 3.26683 55.7117 3.34179 55.4036 3.4917C55.1037 3.63329 54.8747 3.84567 54.7165 4.12884C54.5582 4.41201 54.4791 4.75764 54.4791 5.16574V19.8823ZM57.1776 6.36505V8.91359H48.8448V6.36505H57.1776ZM58.4893 13.2611V12.9987C58.4893 12.0077 58.6309 11.0957 58.9141 10.2628C59.1972 9.42163 59.6095 8.69289 60.1508 8.07657C60.6922 7.46026 61.3585 6.98137 62.1497 6.6399C62.9409 6.2901 63.8487 6.1152 64.8731 6.1152C65.8976 6.1152 66.8095 6.2901 67.6091 6.6399C68.4086 6.98137 69.0791 7.46026 69.6204 8.07657C70.1701 8.69289 70.5865 9.42163 70.8697 10.2628C71.1529 11.0957 71.2945 12.0077 71.2945 12.9987V13.2611C71.2945 14.2439 71.1529 15.1558 70.8697 15.997C70.5865 16.8299 70.1701 17.5586 69.6204 18.1833C69.0791 18.7996 68.4128 19.2785 67.6216 19.62C66.8303 19.9614 65.9225 20.1322 64.8981 20.1322C63.8737 20.1322 62.9617 19.9614 62.1622 19.62C61.371 19.2785 60.7005 18.7996 60.1508 18.1833C59.6095 17.5586 59.1972 16.8299 58.9141 15.997C58.6309 15.1558 58.4893 14.2439 58.4893 13.2611ZM62.0872 12.9987V13.2611C62.0872 13.8274 62.1372 14.3563 62.2371 14.8477C62.3371 15.3391 62.4953 15.7722 62.7119 16.1469C62.9367 16.5134 63.2282 16.8007 63.5864 17.0089C63.9445 17.2172 64.3818 17.3213 64.8981 17.3213C65.3978 17.3213 65.8268 17.2172 66.1849 17.0089C66.543 16.8007 66.8303 16.5134 67.0469 16.1469C67.2634 15.7722 67.4217 15.3391 67.5216 14.8477C67.6299 14.3563 67.684 13.8274 67.684 13.2611V12.9987C67.684 12.4491 67.6299 11.9327 67.5216 11.4496C67.4217 10.9583 67.2593 10.5252 67.0344 10.1504C66.8179 9.76727 66.5305 9.46744 66.1724 9.2509C65.8143 9.03436 65.3812 8.92609 64.8731 8.92609C64.3651 8.92609 63.932 9.03436 63.5739 9.2509C63.2241 9.46744 62.9367 9.76727 62.7119 10.1504C62.4953 10.5252 62.3371 10.9583 62.2371 11.4496C62.1372 11.9327 62.0872 12.4491 62.0872 12.9987ZM77.3035 0.693307V19.8823H73.6931V0.693307H77.3035ZM84.0746 6.36505V19.8823H80.4642V6.36505H84.0746ZM80.2393 2.84207C80.2393 2.31738 80.4226 1.88429 80.789 1.54282C81.1555 1.20135 81.6469 1.03061 82.2632 1.03061C82.8712 1.03061 83.3584 1.20135 83.7248 1.54282C84.0996 1.88429 84.287 2.31738 84.287 2.84207C84.287 3.36677 84.0996 3.79986 83.7248 4.14133C83.3584 4.4828 82.8712 4.65354 82.2632 4.65354C81.6469 4.65354 81.1555 4.4828 80.789 4.14133C80.4226 3.79986 80.2393 3.36677 80.2393 2.84207ZM86.4732 13.2611V12.9987C86.4732 12.0077 86.6148 11.0957 86.898 10.2628C87.1812 9.42163 87.5934 8.69289 88.1348 8.07657C88.6762 7.46026 89.3424 6.98137 90.1336 6.6399C90.9249 6.2901 91.8327 6.1152 92.8571 6.1152C93.8815 6.1152 94.7935 6.2901 95.593 6.6399C96.3926 6.98137 97.063 7.46026 97.6044 8.07657C98.154 8.69289 98.5705 9.42163 98.8536 10.2628C99.1368 11.0957 99.2784 12.0077 99.2784 12.9987V13.2611C99.2784 14.2439 99.1368 15.1558 98.8536 15.997C98.5705 16.8299 98.154 17.5586 97.6044 18.1833C97.063 18.7996 96.3967 19.2785 95.6055 19.62C94.8143 19.9614 93.9065 20.1322 92.8821 20.1322C91.8577 20.1322 90.9457 19.9614 90.1461 19.62C89.3549 19.2785 88.6845 18.7996 88.1348 18.1833C87.5934 17.5586 87.1812 16.8299 86.898 15.997C86.6148 15.1558 86.4732 14.2439 86.4732 13.2611ZM90.0712 12.9987V13.2611C90.0712 13.8274 90.1212 14.3563 90.2211 14.8477C90.321 15.3391 90.4793 15.7722 90.6958 16.1469C90.9207 16.5134 91.2122 16.8007 91.5703 17.0089C91.9285 17.2172 92.3657 17.3213 92.8821 17.3213C93.3818 17.3213 93.8107 17.2172 94.1688 17.0089C94.527 16.8007 94.8143 16.5134 95.0308 16.1469C95.2474 15.7722 95.4056 15.3391 95.5056 14.8477C95.6138 14.3563 95.668 13.8274 95.668 13.2611V12.9987C95.668 12.4491 95.6138 11.9327 95.5056 11.4496C95.4056 10.9583 95.2432 10.5252 95.0183 10.1504C94.8018 9.76727 94.5145 9.46744 94.1563 9.2509C93.7982 9.03436 93.3651 8.92609 92.8571 8.92609C92.349 8.92609 91.916 9.03436 91.5578 9.2509C91.208 9.46744 90.9207 9.76727 90.6958 10.1504C90.4793 10.5252 90.321 10.9583 90.2211 11.4496C90.1212 11.9327 90.0712 12.4491 90.0712 12.9987Z" fill="#E1E1E6"/>
</svg>
